<svg xmlns="http://www.w3.org/2000/svg" viewBox="0 0 32 32" width="24" height="24">
  <path fill="#25D366" d="M16 .396C7.163.396 0 7.56 0 16.397c0 2.886.754 5.703 2.187 8.186L0 32l7.64-2.158a15.94 15.94 0 0 0 8.36 2.31c8.837 0 16-7.163 16-16S24.837.396 16 .396z"/>
  <path fill="#FFF" d="M24.037 19.305c-.373-.187-2.206-1.088-2.548-1.212-.343-.124-.593-.187-.843.187-.249.373-.967 1.212-1.186 1.461-.218.249-.436.28-.81.094-.373-.187-1.575-.58-3.002-1.848-1.11-.99-1.86-2.212-2.079-2.585-.218-.373-.023-.575.164-.761.168-.168.373-.436.56-.654.187-.218.249-.373.373-.623.124-.249.062-.467-.031-.654-.094-.187-.843-2.03-1.155-2.78-.303-.727-.611-.628-.843-.64l-.717-.012c-.249 0-.654.094-.998.467-.343.373-1.31 1.28-1.31 3.118 0 1.836 1.341 3.61 1.528 3.859.187.249 2.64 4.034 6.393 5.657.894.386 1.59.616 2.134.789.896.285 1.712.245 2.357.149.718-.107 2.206-.902 2.518-1.774.311-.873.311-1.623.218-1.774-.093-.149-.342-.242-.716-.429z"/>
</svg>
